<?xml version="1.0" encoding="UTF-8"?>
<svg id="Camada_2" data-name="Camada 2" xmlns="http://www.w3.org/2000/svg" viewBox="0 0 119.72 92.96">
  <g id="Camada_1-2" data-name="Camada 1">
    <g>
      <path d="M119.72,59.86l-7.25,7.25c-3.55-6.07-10.15-10.15-17.68-10.15-6.93,0-13.07,3.46-16.77,8.74l-18.16-18.16-18.84,18.84c-3.64-5.66-10.01-9.42-17.23-9.42s-13.6,3.77-17.25,9.44l-6.54-6.54L59.86,0l59.86,59.86Z"/>
      <path d="M108.79,70.79c.96,2.02,1.5,4.28,1.5,6.67,0,8.56-6.94,15.5-15.5,15.5s-15.5-6.94-15.5-15.5c0-2.99.85-5.79,2.33-8.16,2.72-4.41,7.6-7.34,13.17-7.34,6.17,0,11.5,3.61,14,8.83Z"/>
      <path d="M37.39,70.01c1.21,2.21,1.9,4.75,1.9,7.45,0,8.56-6.94,15.5-15.5,15.5s-15.5-6.94-15.5-15.5c0-2.69.69-5.22,1.89-7.42,2.63-4.81,7.74-8.08,13.61-8.08s10.96,3.25,13.6,8.05Z"/>
    </g>
  </g>
</svg>